<svg width="25" height="24" viewBox="0 0 25 24" fill="none" xmlns="http://www.w3.org/2000/svg">
<path d="M6.06692 3C4.09696 3 2.5 4.59696 2.5 6.56692V17C2.5 19.2091 4.29086 21 6.5 21H14.5C15.0523 21 15.5 20.5523 15.5 20C15.5 19.4477 15.0523 19 14.5 19H6.5C5.39543 19 4.5 18.1046 4.5 17V6.56692C4.5 5.70153 5.20153 5 6.06692 5H8.58408C8.58497 5.00067 8.588 5.00191 8.59324 5.00403C8.62153 5.01554 8.71433 5.05326 8.88332 5.17128C9.12291 5.33861 9.4026 5.58635 9.70694 5.88585C9.99043 6.16484 10.2693 6.46251 10.5357 6.74694L10.5853 6.79984C10.8502 7.08258 11.1304 7.38114 11.3579 7.58162C11.5195 7.72409 11.7499 7.86084 11.9305 7.95285C12.0311 8.00406 12.148 8.05773 12.2688 8.10103C12.3655 8.13573 12.5606 8.2 12.7847 8.2H18.5014C19.6053 8.2 20.5 9.09484 20.5 10.2V15C20.5 15.5523 20.9477 16 21.5 16C22.0523 16 22.5 15.5523 22.5 15V10.2C22.5 7.99145 20.7111 6.2 18.5014 6.2H12.8995C12.8825 6.19236 12.8617 6.18266 12.8384 6.17076C12.79 6.14614 12.743 6.11913 12.7057 6.09557C12.6887 6.0848 12.6765 6.07653 12.6691 6.07132C12.5298 5.94676 12.3265 5.73301 12.0447 5.43229L11.9897 5.37363C11.7285 5.0947 11.4235 4.76909 11.1098 4.46035C10.777 4.13287 10.4043 3.79405 10.0285 3.53158C9.68934 3.29472 9.18354 3 8.61436 3H6.06692Z" fill="black"/>
<path d="M20.5 17C20.5 16.4477 20.0523 16 19.5 16C18.9477 16 18.5 16.4477 18.5 17V18H17.5C16.9477 18 16.5 18.4477 16.5 19C16.5 19.5523 16.9477 20 17.5 20H18.5V21C18.5 21.5523 18.9477 22 19.5 22C20.0523 22 20.5 21.5523 20.5 21V20H21.5C22.0523 20 22.5 19.5523 22.5 19C22.5 18.4477 22.0523 18 21.5 18H20.5V17Z" fill="black"/>
</svg>
