<svg width="25" height="24" viewBox="0 0 25 24" fill="none" xmlns="http://www.w3.org/2000/svg">
<path d="M12.5 6C13.0523 6 13.5 6.44772 13.5 7V14C13.5 14.5523 13.0523 15 12.5 15C11.9477 15 11.5 14.5523 11.5 14V7C11.5 6.44772 11.9477 6 12.5 6Z" fill="black"/>
<path d="M11.25 16.75C11.25 17.4404 11.8096 18 12.5 18C13.1904 18 13.75 17.4404 13.75 16.75C13.75 16.0596 13.1904 15.5 12.5 15.5C11.8096 15.5 11.25 16.0596 11.25 16.75Z" fill="black"/>
<path fill-rule="evenodd" clip-rule="evenodd" d="M2.5 12C2.5 6.47715 6.97715 2 12.5 2C18.0228 2 22.5 6.47715 22.5 12C22.5 17.5228 18.0228 22 12.5 22C6.97715 22 2.5 17.5228 2.5 12ZM12.5 4C8.08172 4 4.5 7.58172 4.5 12C4.5 16.4183 8.08172 20 12.5 20C16.9183 20 20.5 16.4183 20.5 12C20.5 7.58172 16.9183 4 12.5 4Z" fill="black"/>
</svg>
