<svg width="25" height="24" viewBox="0 0 25 24" fill="none" xmlns="http://www.w3.org/2000/svg">
<path d="M18.5 2C19.0523 2 19.5 2.44772 19.5 3V21C19.5 21.5523 19.0523 22 18.5 22C17.9477 22 17.5 21.5523 17.5 21V3C17.5 2.44772 17.9477 2 18.5 2Z" fill="black"/>
<path d="M15.5 9C15.5 8.44772 15.0523 8 14.5 8C13.9477 8 13.5 8.44772 13.5 9V21C13.5 21.5523 13.9477 22 14.5 22C15.0523 22 15.5 21.5523 15.5 21V9Z" fill="black"/>
<path d="M10.5 12C11.0523 12 11.5 12.4477 11.5 13V21C11.5 21.5523 11.0523 22 10.5 22C9.94769 22 9.49997 21.5523 9.49997 21V13C9.49997 12.4477 9.94769 12 10.5 12Z" fill="black"/>
<path d="M6.49997 16C7.05226 16 7.49997 16.4477 7.49997 17V21C7.49997 21.5523 7.05226 22 6.49997 22C5.94769 22 5.49997 21.5523 5.49997 21V17C5.49997 16.4477 5.94769 16 6.49997 16Z" fill="black"/>
<path d="M6.62129 4.70705C6.23077 4.31652 5.5976 4.31652 5.20708 4.70705C4.81655 5.09757 4.81655 5.73074 5.20708 6.12126L5.91418 6.82837L5.20708 7.53548C4.81655 7.926 4.81655 8.55917 5.20708 8.94969C5.5976 9.34021 6.23077 9.34021 6.62129 8.94969L7.3284 8.24258L8.0355 8.94969C8.42603 9.34021 9.05919 9.34021 9.44972 8.94969C9.84024 8.55917 9.84024 7.926 9.44972 7.53548L8.74261 6.82837L9.44972 6.12126C9.84024 5.73074 9.84024 5.09757 9.44972 4.70705C9.05919 4.31652 8.42603 4.31652 8.0355 4.70705L7.3284 5.41416L6.62129 4.70705Z" fill="black"/>
</svg>
